<svg width="32" height="32" viewBox="0 0 32 32" fill="none" xmlns="http://www.w3.org/2000/svg">
  <defs>
    <linearGradient id="faviconGradient" x1="0%" y1="0%" x2="100%" y2="100%">
      <stop offset="0%" style="stop-color:#A78BFA;stop-opacity:1" />
      <stop offset="50%" style="stop-color:#E879F9;stop-opacity:1" />
      <stop offset="100%" style="stop-color:#818CF8;stop-opacity:1" />
    </linearGradient>
  </defs>
  
  <!-- Simplified neural network for favicon -->
  <!-- Central node -->
  <circle cx="16" cy="16" r="3.5" fill="url(#faviconGradient)"/>
  
  <!-- Neural connections -->
  <path d="M 16 12.5 Q 10 8, 6 6" stroke="url(#faviconGradient)" stroke-width="1.5" fill="none" stroke-linecap="round"/>
  <path d="M 16 12.5 Q 22 8, 26 6" stroke="url(#faviconGradient)" stroke-width="1.5" fill="none" stroke-linecap="round"/>
  <path d="M 12.5 16 Q 8 16, 6 16" stroke="url(#faviconGradient)" stroke-width="1.5" fill="none" stroke-linecap="round"/>
  <path d="M 19.5 16 Q 24 16, 26 16" stroke="url(#faviconGradient)" stroke-width="1.5" fill="none" stroke-linecap="round"/>
  <path d="M 16 19.5 Q 10 24, 6 26" stroke="url(#faviconGradient)" stroke-width="1.5" fill="none" stroke-linecap="round"/>
  <path d="M 16 19.5 Q 22 24, 26 26" stroke="url(#faviconGradient)" stroke-width="1.5" fill="none" stroke-linecap="round"/>
  
  <!-- Outer nodes -->
  <circle cx="6" cy="6" r="2.5" fill="url(#faviconGradient)"/>
  <circle cx="26" cy="6" r="2.5" fill="url(#faviconGradient)"/>
  <circle cx="6" cy="16" r="2.5" fill="url(#faviconGradient)"/>
  <circle cx="26" cy="16" r="2.5" fill="url(#faviconGradient)"/>
  <circle cx="6" cy="26" r="2.5" fill="url(#faviconGradient)"/>
  <circle cx="26" cy="26" r="2.5" fill="url(#faviconGradient)"/>
</svg>
